<svg xmlns="http://www.w3.org/2000/svg" width="300" height="300" viewBox="0 0 300 300">
  <g transform="translate(0 0)">
    <path d="M215,170 C215,215 180,250 135,250 L60,250 C60,250 60,90 60,90 L135,90 C180,90 215,125 215,170 Z" fill="#4285F4" />
    <path d="M60,90 L60,250 L30,250 C15,250 0,235 0,220 L0,120 C0,105 15,90 30,90 L60,90 Z" fill="#34A853" />
    <path d="M60,250 L135,250 C142,250 149,248 155,246 L155,94 C149,92 142,90 135,90 L60,90 L60,250 Z" fill="#34A853" />
    <path d="M215,170 L215,200 C215,235 185,250 155,250 L155,246 C185,246 200,210 200,170 C200,130 185,94 155,94 L155,90 C185,90 215,105 215,140 L215,170 Z" fill="#FBBC05" />
  </g>
</svg>
